<svg width="222" height="79" viewBox="0 0 222 79" fill="none" xmlns="http://www.w3.org/2000/svg">
<g clip-path="url(#clip0)">
<rect x="5" y="5" width="212" height="69" fill="#FFF300" stroke="black" stroke-width="10"/>
<path d="M91.7209 26.0609L97.7327 24.9359C96.1155 31.0765 94.9202 36.5844 94.1467 41.4594L97.4866 40.0531L99.9475 26.0609L105.959 24.9359C103.522 34.5453 101.94 42.6898 101.213 49.3695L95.5881 50.9164L96.2913 47.014C94.3225 47.8812 91.3459 49.182 87.3616 50.9164L91.7209 26.0609Z" fill="black"/>
<path d="M107.496 26.1664C108.246 26.0492 109.653 25.7328 111.715 25.2172C113.496 24.7953 114.926 24.5258 116.004 24.4086C116.426 24.3851 116.836 24.3734 117.235 24.3734C120.328 24.3734 121.863 25.475 121.84 27.6781C121.84 30.7953 119.918 33.9125 116.074 37.0297C118.488 36.8656 119.883 37.5453 120.258 39.0687C120.328 39.3969 120.363 39.7367 120.363 40.0883C120.363 41.8461 119.52 43.6273 117.832 45.432C116.543 46.8148 114.949 48.0336 113.051 49.0883C110.778 50.3539 108.164 50.9867 105.211 50.9867C104.742 50.9867 104.274 50.975 103.805 50.9515C104.719 46.1469 105.727 39.6898 106.828 31.5804C107.156 29.2836 107.379 27.4789 107.496 26.1664ZM111.223 40.7914C111.035 41.682 110.836 42.889 110.625 44.4125C113.93 43.4047 115.582 42.2562 115.582 40.9672C115.582 40.4984 115.172 40.264 114.352 40.264C113.625 40.264 112.582 40.4398 111.223 40.7914ZM113.156 31.3695C112.969 32.1429 112.793 32.9164 112.629 33.6898L112.137 36.0101C113.848 34.9554 115.067 33.7367 115.793 32.3539C115.957 32.0492 116.039 31.8031 116.039 31.6156C116.039 31.2172 115.735 31.0179 115.125 31.0179C114.656 31.0179 114 31.1351 113.156 31.3695Z" fill="black"/>
<path d="M118.842 51.0922C122.006 43.0765 124.42 34.9203 126.084 26.6234L134.486 25.2523L133.291 38.1547L136.561 26.2367L144.647 24.8304C143.686 32.4711 143.205 39.3617 143.205 45.5023C143.205 46.7211 143.217 47.9281 143.24 49.1234L136.033 50.389L137.299 34.9906L132.693 52.0414L128.826 52.5687L131.147 30.9125L126.154 50.1078L118.842 51.0922Z" fill="black"/>
<path d="M149.207 26.0609L155.254 24.9359C152.816 34.3344 151.223 42.4789 150.473 49.3695L144.883 50.9164L149.207 26.0609Z" fill="black"/>
<path d="M170.361 24.5844L170.15 31.1234C168.51 31.2172 166.951 31.3344 165.475 31.475C163.928 37.9672 162.885 43.932 162.346 49.3695L156.404 50.9164L159.639 32.2133C159.006 32.307 158.373 32.4125 157.74 32.5297L155.877 32.8812L155.455 26.307L170.361 24.5844Z" fill="black"/>
<path d="M79.5724 23.435C77.8155 24.0938 75.7292 24.8899 73.3135 25.8232L67.137 28.2115C67.137 25.6311 66.4233 24.3409 64.9958 24.3409C62.9644 24.3409 60.933 25.4938 58.9017 27.7997C57.4742 29.5017 56.8703 31.1488 57.0899 32.7409C57.2546 33.7841 58.2977 34.3057 60.2193 34.3057C61.2625 34.3057 62.635 34.1409 64.337 33.8115C66.6978 33.3174 68.7841 33.0704 70.5959 33.0704C75.2077 33.0704 77.8979 34.6625 78.6665 37.8469C78.8861 38.8351 78.9959 39.8782 78.9959 40.9763C78.9959 44.49 77.6783 48.2783 75.0429 52.3411C71.639 57.6666 66.8625 62.1411 60.7134 65.7647C57.4742 67.6863 54.2899 68.6471 51.1604 68.6471C48.3055 68.6471 45.5055 67.851 42.7604 66.2588C44.1329 62.9647 46.329 58.1058 49.3487 51.6822C51.1055 52.8901 52.9722 53.494 54.9487 53.494C55.8271 53.494 56.733 53.3568 57.6664 53.0823C59.3683 52.643 60.9879 52.0117 62.5252 51.1881C64.7213 49.9803 65.8194 48.745 65.8194 47.4822C65.8194 46.1097 64.6939 45.4234 62.4429 45.4234C60.9056 45.4234 58.6546 45.7528 55.6899 46.4116C52.78 47.0155 50.5565 47.3175 49.0192 47.3175C46.9879 47.3175 45.4231 46.9332 44.3251 46.1646C42.1839 44.7371 41.3055 42.5136 41.6898 39.4939C42.4035 33.3998 46.329 26.3448 53.4663 18.3291C60.7683 10.0937 67.0547 5.78389 72.3253 5.39957C77.4312 5.07016 79.9842 8.91332 79.9842 16.9291C79.9842 18.8506 79.8469 21.0193 79.5724 23.435Z" fill="#ED2843"/>
<path fill-rule="evenodd" clip-rule="evenodd" d="M84.1947 27.0416L81.3279 28.1166C80.2541 28.5193 79.0529 28.975 77.7237 29.4838C78.0279 29.6296 78.3265 29.7885 78.6189 29.9616C81.1872 31.4816 82.8426 33.8389 83.5269 36.6736L83.5375 36.7178L83.5474 36.7622C83.8525 38.1352 83.9959 39.5439 83.9959 40.9763C83.9959 45.7517 82.2102 50.4754 79.2468 55.048C75.3695 61.1089 69.9884 66.1014 63.2587 70.0684C59.4066 72.3524 55.3525 73.6471 51.1604 73.6471C47.3289 73.6471 43.6719 72.5676 40.2517 70.584L36.4583 68.3838L38.1449 64.3357C39.4144 61.2889 41.3404 57.0059 43.9043 51.5169C43.07 51.2168 42.2631 50.8174 41.5065 50.2947C39.6779 49.0638 38.2457 47.3788 37.41 45.2634C36.5912 43.1908 36.4607 41.0024 36.7265 38.8881C37.6268 31.2696 42.3708 23.2721 49.7287 15.0079C53.5406 10.7092 57.2394 7.2581 60.8302 4.79629C64.3999 2.34896 68.1367 0.6917 71.9616 0.412804L71.9825 0.411284L72.0033 0.409938C76.1064 0.145225 79.8436 1.66954 82.2342 5.26824C84.3256 8.41663 84.9841 12.5771 84.9841 16.9291C84.9841 19.081 84.8309 21.443 84.5404 23.9995L84.1947 27.0416ZM53.4663 18.3291C46.329 26.3448 42.4034 33.3998 41.6897 39.4939C41.3054 42.5135 42.1838 44.7371 44.325 46.1646C44.8082 46.5028 45.3816 46.7665 46.0455 46.9559C46.8904 47.197 47.8816 47.3175 49.0192 47.3175C49.7204 47.3175 50.5645 47.2547 51.5514 47.129C52.7279 46.9792 54.1074 46.74 55.6898 46.4116C58.6545 45.7528 60.9055 45.4234 62.4428 45.4234C64.6938 45.4234 65.8193 46.1097 65.8193 47.4822C65.8193 48.745 64.7213 49.9803 62.5252 51.1881C60.9879 52.0117 59.3683 52.643 57.6663 53.0823C56.733 53.3568 55.8271 53.494 54.9486 53.494C54.1238 53.494 53.3181 53.3888 52.5315 53.1785C51.771 52.9751 51.0284 52.6734 50.3037 52.2734C49.9818 52.0957 49.6634 51.8987 49.3486 51.6822C49.2482 51.8957 49.1488 52.1075 49.0503 52.3175C48.3986 53.7065 47.7867 55.0199 47.2146 56.2578C45.2703 60.4645 43.7856 63.7982 42.7603 66.2588C44.2632 67.1305 45.7826 67.7636 47.3184 68.158C47.3387 68.1632 47.3589 68.1684 47.3792 68.1735C48.6287 68.4892 49.8891 68.6471 51.1604 68.6471C54.2898 68.6471 57.4741 67.6863 60.7134 65.7647C66.8624 62.1411 71.6389 57.6666 75.0429 52.3411C77.6782 48.2783 78.9959 44.49 78.9959 40.9763C78.9959 39.8782 78.8861 38.8351 78.6664 37.8469C77.8978 34.6625 75.2076 33.0703 70.5958 33.0703C69.8063 33.0703 68.9647 33.1173 68.071 33.2111C66.9137 33.3326 65.669 33.5327 64.3369 33.8115C63.5295 33.9678 62.7961 34.087 62.137 34.1692C61.4067 34.2602 60.7675 34.3056 60.2193 34.3056C58.2977 34.3056 57.2545 33.7841 57.0898 32.7409C56.8702 31.1488 57.4741 29.5017 58.9016 27.7997C60.933 25.4938 62.9644 24.3409 64.9958 24.3409C65.2487 24.3409 65.4792 24.3814 65.6873 24.4624C66.6537 24.8386 67.137 26.0883 67.137 28.2115L73.3135 25.8232C75.7292 24.8899 77.8155 24.0938 79.5723 23.435C79.8468 21.0193 79.9841 18.8506 79.9841 16.9291C79.9841 8.91331 77.4311 5.07015 72.3252 5.39956C67.0546 5.78388 60.7683 10.0937 53.4663 18.3291ZM62.0447 32.1256C62.0447 32.1257 62.0448 32.1248 62.0451 32.1231Z" fill="black"/>
<path d="M83.5724 20.435C81.8155 21.0938 79.7292 21.8899 77.3135 22.8232L71.137 25.2115C71.137 22.6311 70.4233 21.3409 68.9958 21.3409C66.9644 21.3409 64.933 22.4938 62.9017 24.7997C61.4742 26.5017 60.8703 28.1488 61.0899 29.7409C61.2546 30.7841 62.2977 31.3057 64.2193 31.3057C65.2625 31.3057 66.635 31.1409 68.337 30.8115C70.6978 30.3174 72.7841 30.0704 74.5959 30.0704C79.2077 30.0704 81.8979 31.6625 82.6665 34.8469C82.8861 35.8351 82.9959 36.8782 82.9959 37.9763C82.9959 41.49 81.6783 45.2783 79.0429 49.3411C75.639 54.6666 70.8625 59.1411 64.7134 62.7647C61.4742 64.6863 58.2899 65.6471 55.1604 65.6471C52.3055 65.6471 49.5055 64.851 46.7604 63.2588C48.1329 59.9647 50.329 55.1058 53.3487 48.6822C55.1055 49.8901 56.9722 50.494 58.9487 50.494C59.8271 50.494 60.733 50.3568 61.6664 50.0823C63.3683 49.643 64.9879 49.0117 66.5252 48.1881C68.7213 46.9803 69.8194 45.745 69.8194 44.4822C69.8194 43.1097 68.6939 42.4234 66.4429 42.4234C64.9056 42.4234 62.6546 42.7528 59.6899 43.4116C56.78 44.0155 54.5565 44.3175 53.0192 44.3175C50.9879 44.3175 49.4231 43.9332 48.3251 43.1646C46.1839 41.7371 45.3055 39.5136 45.6898 36.4939C46.4035 30.3998 50.329 23.3448 57.4663 15.3291C64.7683 7.09372 71.0547 2.78389 76.3253 2.39957C81.4312 2.07016 83.9842 5.91332 83.9842 13.9291C83.9842 15.8506 83.8469 18.0193 83.5724 20.435Z" fill="#ED2843"/>
<path fill-rule="evenodd" clip-rule="evenodd" d="M88.1947 24.0416L85.3279 25.1166C84.2541 25.5193 83.0529 25.975 81.7237 26.4838C82.0279 26.6296 82.3265 26.7885 82.6189 26.9616C85.1872 28.4816 86.8426 30.8389 87.5269 33.6736L87.5375 33.7178L87.5474 33.7622C87.8525 35.1352 87.9959 36.5439 87.9959 37.9763C87.9959 42.7517 86.2102 47.4754 83.2468 52.048C79.3695 58.1089 73.9884 63.1014 67.2587 67.0684C63.4066 69.3524 59.3525 70.6471 55.1604 70.6471C51.3289 70.6471 47.6719 69.5676 44.2517 67.584L40.4583 65.3838L42.1449 61.3357C43.4144 58.2889 45.3404 54.0059 47.9043 48.5169C47.07 48.2168 46.2631 47.8174 45.5065 47.2947C43.6779 46.0638 42.2457 44.3788 41.41 42.2634C40.5912 40.1908 40.4607 38.0024 40.7265 35.8881C41.6268 28.2696 46.3708 20.2721 53.7287 12.0079C57.5406 7.70919 61.2394 4.2581 64.8302 1.79629C68.3999 -0.651043 72.1367 -2.3083 75.9616 -2.5872L75.9825 -2.58872L76.0033 -2.59006C80.1064 -2.85478 83.8436 -1.33046 86.2342 2.26824C88.3256 5.41663 88.9841 9.57714 88.9841 13.9291C88.9841 16.081 88.8309 18.443 88.5404 20.9995L88.1947 24.0416ZM57.4663 15.3291C50.329 23.3448 46.4034 30.3998 45.6897 36.4939C45.3054 39.5135 46.1838 41.7371 48.325 43.1646C48.8082 43.5028 49.3816 43.7665 50.0455 43.9559C50.8904 44.197 51.8816 44.3175 53.0192 44.3175C53.7204 44.3175 54.5645 44.2547 55.5514 44.129C56.7279 43.9792 58.1074 43.74 59.6898 43.4116C62.6545 42.7528 64.9055 42.4234 66.4428 42.4234C68.6938 42.4234 69.8193 43.1097 69.8193 44.4822C69.8193 45.745 68.7213 46.9803 66.5252 48.1881C64.9879 49.0117 63.3683 49.643 61.6663 50.0823C60.733 50.3568 59.8271 50.494 58.9486 50.494C58.1238 50.494 57.3181 50.3888 56.5315 50.1785C55.771 49.9751 55.0284 49.6734 54.3037 49.2734C53.9818 49.0957 53.6634 48.8987 53.3486 48.6822C53.2482 48.8957 53.1488 49.1075 53.0503 49.3175C52.3986 50.7065 51.7867 52.0199 51.2146 53.2578C49.2703 57.4645 47.7856 60.7982 46.7603 63.2588C48.2632 64.1305 49.7826 64.7636 51.3184 65.158C51.3387 65.1632 51.3589 65.1684 51.3792 65.1735C52.6287 65.4892 53.8891 65.6471 55.1604 65.6471C58.2898 65.6471 61.4741 64.6863 64.7134 62.7647C70.8624 59.1411 75.6389 54.6666 79.0429 49.3411C81.6782 45.2783 82.9959 41.49 82.9959 37.9763C82.9959 36.8782 82.8861 35.8351 82.6664 34.8469C81.8978 31.6625 79.2076 30.0703 74.5958 30.0703C73.8063 30.0703 72.9647 30.1173 72.071 30.2111C70.9137 30.3326 69.669 30.5327 68.3369 30.8115C67.5295 30.9678 66.7961 31.087 66.137 31.1692C65.4067 31.2602 64.7675 31.3056 64.2193 31.3056C62.2977 31.3056 61.2545 30.7841 61.0898 29.7409C60.8702 28.1488 61.4741 26.5017 62.9016 24.7997C64.933 22.4938 66.9644 21.3409 68.9958 21.3409C69.2487 21.3409 69.4792 21.3814 69.6873 21.4624C70.6537 21.8386 71.137 23.0883 71.137 25.2115L77.3135 22.8232C79.7292 21.8899 81.8155 21.0938 83.5723 20.435C83.8468 18.0193 83.9841 15.8506 83.9841 13.9291C83.9841 5.91331 81.4311 2.07015 76.3252 2.39956C71.0546 2.78388 64.7683 7.09372 57.4663 15.3291ZM66.0447 29.1256C66.0447 29.1257 66.0448 29.1248 66.0451 29.1231Z" fill="black"/>
</g>
<defs>
<clipPath id="clip0">
<rect width="222" height="79" fill="white"/>
</clipPath>
</defs>
</svg>
