<?xml version="1.0" encoding="utf-8"?>
<!-- Generator: Adobe Illustrator 25.0.0, SVG Export Plug-In . SVG Version: 6.00 Build 0)  -->
<svg version="1.1" id="Layer_1" xmlns="http://www.w3.org/2000/svg" xmlns:xlink="http://www.w3.org/1999/xlink" x="0px" y="0px"
	 viewBox="0 0 1440 932" style="enable-background:new 0 0 1440 932;" xml:space="preserve">
<style type="text/css">
	.st0{clip-path:url(#SVGID_2_);}
	.st1{fillRule:evenodd;clipRule:evenodd;fill:#FFF300;}
	.st2{fillRule:evenodd;clipRule:evenodd;}
	.st3{fillRule:evenodd;clipRule:evenodd;fill:#ED1C24;}
</style>
<path d="M434,295c0,0,42.5-49.3,112-55c147-12,200,146,200,146s105-47,140-38s133,28,133,28l-17,257l-302,83l-266,7V295z"/>
<g>
	<defs>
		<rect id="SVGID_1_" width="1442" height="932"/>
	</defs>
	<clipPath id="SVGID_2_">
		<use xlink:href="#SVGID_1_"  style="overflow:visible;"/>
	</clipPath>
	<g class="st0">
		<path d="M494.8,266.1c89.6-35.9,190.7,8.6,226.2,99.7c7.1,18.7,9.1,31.4,12.6,50.6l17.2-10.6c129.5-79.4,298.5-22.3,354.2,121.4
			c9.1,23.8,12.1,49.1,16.7,73.4c25.8-6.6,42-10.6,69.3-6.6c30.4,4,46,14.2,70.8,28.3l2.5-21.3c10.6-91.1,85-172,172.5-177.1
			c1.5,0,3.5,0,5.1,0v-32.4c-103.2-8.1-187.2,66.3-202.9,175.6c-30.4-13.2-63.2-17.2-96.1-12.1c-31.4-188.7-219.6-283.9-387.6-188.2
			C721,251,594.5,192.3,484.2,236.8C380,278.8,328.9,401.2,369.9,507l12.1-5.1"/>
		<path d="M1440.5,95.6c-93.1,3.5-172,89.6-177.6,183.7c-190.8-70.8-362.3,71.3-359.2,274.2c-99.2-71.8-222.1-36.9-281.8,69.3
			c-23.3-23.3-52.6-40-85-47.1c38.5-187.2-102.2-346.1-292.4-320.3c10.1-120.9-87-222.6-204.9-222.6c-13.2,0-26.3,1.5-39.5,4v31.4
			c12.6-2.5,25.8-4,39-4c96.1,0,174.1,79.4,174.1,177.6c0,19.7-3,32.4-6.1,51.6l19.7-3.5C375.9,264.1,512,381,512,535.8
			c0,25.8-6.6,50.1-11.1,74.4c26.3,3.5,43,6.1,66.8,19.7c26.8,15.2,37.9,30.4,55.7,53.1l10.1-18.7c43-81,141.2-128,224.1-100.2
			c32.9,11.1,50.1,26.3,76.4,46.5l-2-30.9C921.9,428.1,1040.3,299,1189.5,299c41.5,0,64.8,7.6,102.2,20.2l-1-20.7
			c-4-84,66.8-156.9,150.8-157.9V96.1C1441.5,95.6,1441,95.6,1440.5,95.6z"/>
		<path class="st1" d="M0,68.3V932h1442V140.2c-84,1-155.3,73.9-150.8,157.9l1,20.7c-36.9-12.6-60.7-20.2-102.2-20.2
			c-149.3,0-267.7,128.5-257.5,280.8l2,30.9c-26.3-20.2-43.5-35.4-76.4-46.6c-83.5-28.3-181.6,19.2-224.1,100.2l-10.1,18.7
			c-17.7-22.3-28.8-37.9-55.7-53.1c-24.3-14.2-41-16.2-66.8-19.7c4.6-24.3,11.1-48.6,11.1-74.4c0-154.3-136.6-271.2-285.4-245.9
			l-19.7,3.5c3.5-19.2,6.1-31.9,6.1-51.6c0-98.2-77.9-177.6-174.1-177.6C25.8,63.8,12.6,65.3,0,68.3z"/>
		<path class="st2" d="M0,366.3V932h1442V266.6c-82,21.8-141.7,89.6-141.7,170c0,19.7,3,32.4,7.1,51.6l-22.3-3.5
			c-170-25.8-325.8,91.1-325.8,245.9c0,25.8,7.1,50.1,12.6,74.4c-29.9,3.5-48.6,6.1-76.4,19.7c-30.4,15.2-43,30.4-63.2,53.1
			l-11.6-18.7c-48.6-81-160.9-128-256-100.2c-37.4,11.1-57.2,26.3-87.5,46.5l2.5-30.9c11.6-151.8-123.5-280.8-293.5-280.8
			c-47.1,0-73.9,7.6-116.4,20.2l1-20.7C73.9,442.2,44.5,395.2,0,366.3z"/>
		<path d="M528.3,161c12.1,23.4,12.3,57.3,2.2,84.3c30.7,14.9,45.9,50.1,34.8,83.2c-2.2-21.8,4.4-54.5-45.7-72.9l-6.4-2.6
			c2-5.4,4-9,5.5-14.1c20.5-61-29.7-118.9-90.3-113v-19C467.6,103.5,509.6,123.6,528.3,161z"/>
		<path class="st2" d="M269.5,375.6c-24.3-22.8-108.3,39-129.5,50.6c14.7-14.7,104.2-87.5,86-112.8c-11.1-15.2-42-25.8-59.2-29.9
			c14.7-2.5,70.8-6.1,74.4-25.8c4.6-29.9-50.1-73.9-66.3-92.1c24.8,17.2,69.8,49.6,99.2,47.1c39.5-3.5,55.1-65.3,68.8-95.6
			c-4.6,26.8-12.1,77.9,14.2,96.1c28.8,19.2,55.7-10.1,78.4-24.8c-7.1,13.2-35.4,53.6-27.3,68.8c7.1,12.6,33.4,17.2,46,18.2
			c31.4,3,64.3,1,95.6,1c-22.3,8.1-102.7,28.3-107.8,56.7c-5.6,27.8,75.9,73.9,93.6,87c-118.9-53.6-154.3-70.8-138.6,72.4
			c-7.6-20.7-32.9-102.7-52.1-104.7c-37.9-4.6-73.9,77.4-89,103.2C260.9,468.6,289.8,394.3,269.5,375.6z"/>
		<path class="st2" d="M37.9,256.2l8.1-24.3l169,23.8L37.9,256.2z"/>
		<path d="M497.9,398.4c0,20.2,7.1,57.7-45,77.4l-8.1,2v5.1c-1,17.2-7.1,33.9-16.7,47.6c-40.5,56.2-127,44-150.8-21.8
			c-2-5.1-3-9.1-4-14.7l-6.6,2c-50.6,16.7-65.3-13.7-81-29.3c12.1,32.9,45.5,51.1,78.9,44c9.1,27.3,30.4,54.1,54.1,65.3
			c62.2,29.3,144.2-16.2,139.6-88h0.5C493.3,474.3,515.1,434.3,497.9,398.4z"/>
		<path class="st3" d="M383.9,419.6c-18.2-82.5-76.9-36.4-93.6-8.6c10.6-45.5-20.7-71.8-70.3-44c47.1-47.1,18.7-70.3-3-79.4
			c60.7-11.1,40-53.6,20.7-73.9c31.4,19.7,72.4,16.2,94.1-32.4c-1,40.5,45,61.7,72.4,44c-27.3,51.6,33.9,63.8,77.4,62.2
			c-39.5,16.2-72.9,44-26.3,81C415.2,352.3,377.8,373,383.9,419.6z"/>
	</g>
</g>
</svg>
