<svg width="196" height="199" viewBox="0 0 196 199" fill="none" xmlns="http://www.w3.org/2000/svg">
<path d="M84.4266 32.6107C75.2089 82.6144 70.094 126.823 69.0819 165.236L38.1066 175.896L47.3242 77.4032L22.9678 83.0235L25.3509 46.9029L84.4266 32.6107Z" fill="#ED2843"/>
<path fill-rule="evenodd" clipRule="evenodd" d="M103.656 12.2922L99.4015 35.3712C90.2844 84.8288 85.2896 128.221 84.3038 165.637L84.0256 176.197L20.7468 197.973L30.1983 96.9823L6.42485 102.468L10.8936 34.7342L103.656 12.2922ZM47.3243 77.4032L38.1067 175.896L69.082 165.236C69.9822 131.069 74.1283 92.317 81.5204 48.9802C82.439 43.5945 83.4078 38.138 84.4267 32.6107L25.351 46.9029L22.9679 83.0235L47.3243 77.4032Z" fill="black"/>
<path d="M139.767 31.8441C137.586 32.6617 134.997 33.6497 131.999 34.8081L124.334 37.7721C124.334 34.5696 123.448 32.9684 121.676 32.9684C119.155 32.9684 116.634 34.3993 114.113 37.2611C112.341 39.3734 111.592 41.4175 111.864 43.3935C112.069 44.6882 113.363 45.3355 115.748 45.3355C117.043 45.3355 118.746 45.1311 120.859 44.7222C123.788 44.109 126.378 43.8024 128.626 43.8024C134.35 43.8024 137.689 45.7784 138.643 49.7304C138.915 50.9569 139.051 52.2515 139.051 53.6143C139.051 57.9751 137.416 62.6767 134.145 67.7189C129.921 74.3283 123.993 79.8816 116.361 84.3787C112.341 86.7636 108.389 87.956 104.505 87.956C100.962 87.956 97.4871 86.968 94.0801 84.992C95.7836 80.9037 98.5091 74.8734 102.257 66.9012C104.437 68.4003 106.754 69.1498 109.207 69.1498C110.297 69.1498 111.421 68.9795 112.58 68.6388C114.692 68.0937 116.702 67.3101 118.61 66.288C121.335 64.789 122.698 63.2559 122.698 61.6887C122.698 59.9852 121.301 59.1335 118.508 59.1335C116.6 59.1335 113.806 59.5423 110.127 60.36C106.515 61.1095 103.756 61.4843 101.848 61.4843C99.3268 61.4843 97.3849 61.0073 96.0221 60.0533C93.3647 58.2818 92.2745 55.5222 92.7515 51.7745C93.6372 44.2112 98.5091 35.4554 107.367 25.5072C116.43 15.2865 124.231 9.93761 130.773 9.46064C137.11 9.05181 140.278 13.8215 140.278 23.7697C140.278 26.1545 140.108 28.846 139.767 31.8441Z" fill="#ED2843"/>
<path d="M186.476 9.46064L185.862 28.4712C181.093 28.7438 176.562 29.0845 172.269 29.4933C167.772 48.3676 164.74 65.7088 163.172 81.5169L145.899 86.0141L155.302 31.6397C153.463 31.9122 151.623 32.2188 149.783 32.5595L144.366 33.5816L143.14 14.4688L186.476 9.46064Z" fill="#ED2843"/>
<path fill-rule="evenodd" clipRule="evenodd" d="M136.077 33.2415C137.415 32.7306 138.645 32.2648 139.767 31.8441C140.108 28.846 140.278 26.1545 140.278 23.7697C140.278 20.0261 139.829 17.0158 138.932 14.7388C137.984 12.3326 136.534 10.7453 134.584 9.97702C133.475 9.54037 132.205 9.36825 130.773 9.46065C124.231 9.93762 116.429 15.2865 107.367 25.5072C98.5091 35.4554 93.6372 44.2112 92.7514 51.7746C92.2744 55.5222 93.3646 58.2818 96.022 60.0534C96.1055 60.1118 96.1911 60.1684 96.2789 60.2233C97.6248 61.0639 99.4811 61.4843 101.848 61.4843C103.006 61.4843 104.479 61.3461 106.266 61.0697C106.869 60.9763 107.509 60.8672 108.184 60.7422C108.802 60.628 109.449 60.5006 110.127 60.36C111.241 60.1123 112.275 59.9021 113.227 59.7294C113.799 59.6257 114.341 59.5356 114.854 59.459C114.879 59.4552 114.905 59.4514 114.93 59.4476C114.935 59.4469 114.94 59.4463 114.944 59.4456C116.357 59.2375 117.545 59.1335 118.508 59.1335C121.301 59.1335 122.698 59.9852 122.698 61.6887C122.698 63.2559 121.335 64.789 118.61 66.288C118.576 66.3063 118.542 66.3244 118.508 66.3425C118.159 66.5275 117.806 66.7046 117.451 66.8737C116.81 67.1783 116.158 67.4572 115.495 67.7102C114.546 68.0726 113.574 68.3821 112.58 68.6388C111.421 68.9795 110.297 69.1498 109.207 69.1498C108.881 69.1498 108.557 69.1366 108.236 69.1101C107.549 69.0535 106.872 68.9362 106.207 68.7582C104.844 68.3937 103.527 67.7747 102.257 66.9013C102.119 67.1941 101.983 67.4843 101.848 67.7719C101.537 68.4352 101.233 69.0845 100.937 69.7199C100.156 71.3933 99.4259 72.97 98.747 74.4501C96.7522 78.7984 95.1966 82.3123 94.0801 84.992C95.9453 86.0738 97.831 86.8595 99.7371 87.3491C100.442 87.5302 101.15 87.6708 101.861 87.7709C102.738 87.8943 103.62 87.956 104.505 87.956C108.389 87.956 112.341 86.7636 116.361 84.3787C123.993 79.8816 129.921 74.3283 134.145 67.7189C137.416 62.6767 139.051 57.9751 139.051 53.6143C139.051 52.2515 138.915 50.9569 138.643 49.7304C137.843 46.4173 135.367 44.4929 131.215 43.9573C130.415 43.854 129.552 43.8024 128.626 43.8024C128.007 43.8024 127.363 43.8256 126.692 43.872C124.927 43.9944 122.982 44.2778 120.858 44.7222C118.923 45.0968 117.332 45.2997 116.083 45.3312C115.968 45.334 115.857 45.3355 115.748 45.3355C113.363 45.3355 112.069 44.6882 111.864 43.3935C111.592 41.4175 112.341 39.3734 114.113 37.2611C116.634 34.3993 119.155 32.9684 121.676 32.9684C121.99 32.9684 122.276 33.0186 122.534 33.1192C123.399 33.4558 123.952 34.3559 124.193 35.8194C124.287 36.3859 124.334 37.0368 124.334 37.7721L131.999 34.8081C132.122 34.7607 132.244 34.7137 132.365 34.6669C133.683 34.1581 134.92 33.6829 136.077 33.2415ZM143.98 42.0509C144.31 42.487 144.614 42.9406 144.894 43.41L145.167 41.8268L143.98 42.0509ZM145.899 86.0141L163.172 81.5169C164.74 65.7088 167.772 48.3676 172.269 29.4933C176.562 29.0845 181.093 28.7438 185.862 28.4712L186.476 9.46065L143.14 14.4688L144.366 33.5816L149.783 32.5595C150.701 32.3895 151.619 32.228 152.537 32.075C153.459 31.9213 154.381 31.7762 155.302 31.6397L145.899 86.0141ZM178.95 37.201C181.338 37.0176 183.799 36.8534 186.333 36.7086L193.866 36.2782L195.031 0.16626L143.206 6.15539C139.819 2.45339 135.157 0.909842 130.241 1.22695L130.207 1.22917L130.173 1.23168C124.939 1.6133 119.955 3.86797 115.35 7.02494C110.71 10.2058 105.996 14.6177 101.199 20.027C91.9764 30.3862 85.7546 40.6973 84.5612 50.7752C84.2011 53.6475 84.3664 56.7219 85.5376 59.6865C86.7369 62.7223 88.7913 65.1296 91.3719 66.8693C91.8273 67.1833 92.2933 67.4654 92.7673 67.7183C90.0145 73.6458 87.9058 78.3582 86.464 81.8186L83.6807 88.4985L89.9405 92.1292C94.4613 94.7513 99.3506 96.2068 104.505 96.2068C110.143 96.2068 115.53 94.4634 120.562 91.4801C128.289 86.9246 134.67 81.2813 139.517 74.4988L135.587 97.2247L170.816 88.0528L171.383 82.3309C172.747 68.5748 175.261 53.5361 178.95 37.201ZM115.475 37.0726C115.475 37.0718 115.498 37.0732 115.539 37.0792C115.494 37.0764 115.474 37.0734 115.475 37.0726Z" fill="black"/>
</svg>
