<svg width="327" height="425" viewBox="0 0 327 425" fill="none" xmlns="http://www.w3.org/2000/svg">
<g clip-path="url(#clip0)">
<path fill-rule="evenodd" clip-rule="evenodd" d="M226.126 2.97542L245.679 21.2526L275.007 14.0267L279.683 34.8542L307.736 39.5297L296.685 64.6077L323.888 82.8848L294.985 97.3365L310.711 122.84L277.557 123.265L275.007 152.168L243.553 135.591L226.126 162.794L205.299 137.716L177.246 152.168L171.72 126.24L141.541 122.84L150.467 102.012L69.708 124.115L100.312 185.322L63.7573 199.349L181 368.5L2.9751 175.971L54.8312 164.494L10.2009 100.312L150.893 65.0327L141.541 42.9301L173.845 39.5297L177.246 14.0267L206.574 20.8275L226.126 2.97542Z" fill="#FFECCF"/>
<path d="M183.05 374.275C182.2 374.275 180.925 373.85 180.5 373L0.4245 177.671C-0.000549644 176.821 -0.000549644 175.546 0.4245 174.696C0.849551 173.846 1.69965 172.995 2.54975 172.995L49.3053 162.794L7.65035 102.012C7.2253 101.162 6.80025 99.8868 7.2253 99.0367C7.65035 98.1866 8.50045 97.3365 9.35055 96.9115L146.642 62.4824L138.566 43.7802C138.141 42.9301 138.141 41.655 138.566 40.8049C138.991 39.9548 139.841 39.5297 141.116 39.1047L170.87 36.1293L174.27 13.6017C174.27 12.7515 174.695 11.9014 175.545 11.4764C176.395 11.0513 177.245 10.6263 178.095 11.0513L205.724 17.4271L224.001 0.850146C225.276 -0.425004 226.976 -0.425004 228.251 0.850146L246.529 17.8521L274.157 11.0513C275.007 11.0513 275.857 11.0513 276.707 11.4764C277.557 11.9014 277.982 12.7515 277.982 13.6017L282.233 32.3039L308.161 36.9794C309.011 36.9794 309.861 37.8295 310.286 38.6796C310.711 39.5297 310.711 40.3798 310.286 41.2299L300.51 63.7576L325.588 80.3345C326.438 80.7596 326.863 82.0347 326.863 83.3099C326.863 84.585 326.013 85.4351 325.163 85.8602L299.66 98.6117L313.686 121.139C314.111 121.989 314.111 123.265 313.686 124.115C313.261 124.965 311.986 125.815 311.136 125.815L280.533 126.24L278.407 152.168C278.407 153.018 277.557 154.293 276.707 154.718C275.857 155.143 274.582 155.143 273.732 154.718L245.253 139.416L229.101 164.069C228.676 164.919 227.826 165.345 226.551 165.345C225.701 165.345 224.426 164.919 224.001 164.069L204.874 141.117L178.52 154.718C177.67 155.143 176.82 155.143 175.545 154.718C174.695 154.293 173.845 153.443 173.845 152.593L168.744 128.79L140.691 125.815C139.841 125.815 138.991 124.965 138.141 124.115C137.716 123.265 137.716 121.989 138.141 121.139L144.516 106.688L73.9582 126.24L102.437 183.622C102.862 184.472 102.862 185.322 102.437 186.172C102.011 187.022 101.586 187.447 100.736 187.872L68.0075 201.049L186.026 369.6C186.876 371.3 186.026 373 184.75 373.85C184.325 373.85 183.9 374.275 183.05 374.275ZM8.50045 178.096L180.5 368L61.2067 200.624C60.7816 199.774 60.7816 198.923 61.2067 198.073C61.6317 197.223 62.0568 196.798 62.9069 196.373L96.0608 183.622L67.1574 125.815C66.7323 124.965 66.7323 124.115 67.1574 123.265C67.5824 122.414 68.4325 121.564 69.2826 121.564L150.042 99.4618C151.317 99.0367 152.592 99.4618 153.443 100.312C154.293 101.162 154.293 102.437 153.868 103.712L146.642 120.289L172.57 123.265C173.845 123.265 175.12 124.54 175.12 125.815L179.796 147.492L204.449 134.741C205.724 133.891 207.424 134.316 208.274 135.591L226.126 157.269L241.428 133.891C242.278 132.616 243.978 132.191 245.678 132.616L272.882 147.067L275.007 122.84C275.007 121.139 276.707 119.864 277.982 119.864L305.61 119.439L292.859 98.6117C292.434 97.7616 292.434 96.9115 292.434 96.0614C292.859 95.2113 293.284 94.3612 294.134 93.9361L317.937 82.0347L295.409 66.7329C294.134 65.8828 293.709 64.1826 294.134 62.9075L303.485 41.655L279.257 37.4045C277.982 36.9794 277.132 36.1293 276.707 34.8542L272.882 17.0021L246.529 24.2279C245.678 24.653 244.403 24.2279 243.553 23.3778L226.126 7.2259L208.699 22.9528C207.849 23.8029 206.999 23.8029 205.724 23.8029L179.796 17.8521L176.82 40.3798C176.82 41.655 175.545 42.9301 173.845 42.9301L145.792 45.9055L153.443 64.1826C153.868 65.0327 153.868 65.8828 153.443 66.7329C153.017 67.583 152.167 68.0081 151.317 68.4331L15.3013 102.012L57.3812 162.369C57.8063 163.219 58.2313 164.494 57.8063 165.345C57.3812 166.195 56.5311 167.045 55.681 167.47L8.50045 178.096Z" fill="black"/>
<path d="M197.561 39.2495L206.098 36.6982C204.047 51.0682 203.002 63.1751 202.962 73.0188L195.304 76.0477C195.168 76.062 193.703 75.922 190.91 75.6276C189.796 75.5371 188.784 75.436 187.875 75.3241L186.198 75.1372L189.71 65.6547L195.755 66.0056L197.561 39.2495Z" fill="black"/>
<path d="M221.742 32.7811C225.327 32.4055 228.1 34.1521 230.059 38.0209C231.062 40.0218 231.693 42.2516 231.95 44.7104C232.58 50.7209 231.426 56.849 228.49 63.0949C228.811 64.5113 229.767 67.3802 231.359 71.7017L224.471 77.1359L222.727 71.363C220.206 73.664 217.716 74.9433 215.257 75.2008C211.603 75.5835 208.814 73.8387 206.889 69.9663C205.889 67.9996 205.26 65.7868 205.003 63.328C204.753 60.9375 204.839 58.3045 205.263 55.4291C206.026 50.5157 207.748 45.8643 210.43 41.4749C213.737 36.1225 217.507 33.2246 221.742 32.7811ZM218.386 57.1101L225.309 52.5009C225.225 50.7144 224.953 49.103 224.492 47.6667C223.751 45.5347 222.697 44.5403 221.331 44.6834C219.487 44.8765 217.717 46.7708 216.023 50.3663C214.666 53.2359 213.805 55.8981 213.441 58.353C213.262 59.6146 213.225 60.7406 213.329 61.7309C213.475 63.1311 213.937 64.2394 214.713 65.0557C215.602 65.9638 216.747 66.3445 218.147 66.1979C219.035 66.1049 219.911 65.7369 220.776 65.0939L218.386 57.1101Z" fill="black"/>
<path d="M248.686 29.9589C252.272 29.5834 255.044 31.33 257.003 35.1987C258.007 37.1996 258.637 39.4295 258.895 41.8883C259.524 47.8988 258.371 54.0269 255.435 60.2727C255.755 61.6892 256.712 64.5581 258.304 68.8796L251.416 74.3137L249.672 68.5408C247.151 70.8419 244.661 72.1211 242.202 72.3787C238.548 72.7614 235.759 71.0166 233.834 67.1442C232.834 65.1775 232.205 62.9647 231.947 60.5059C231.697 58.1154 231.784 55.4824 232.208 52.6069C232.97 47.6936 234.693 43.0422 237.375 38.6528C240.681 33.3004 244.452 30.4025 248.686 29.9589ZM245.331 54.2879L252.253 49.6788C252.17 47.8922 251.898 46.2808 251.436 44.8446C250.695 42.7126 249.642 41.7182 248.276 41.8612C246.431 42.0544 244.662 43.9487 242.967 47.5442C241.61 50.4137 240.75 53.076 240.386 55.5309C240.207 56.7925 240.17 57.9185 240.273 58.9088C240.42 60.309 240.881 61.4172 241.657 62.2336C242.546 63.1417 243.691 63.5224 245.091 63.3758C245.979 63.2828 246.856 62.9148 247.72 62.2718L245.331 54.2879Z" fill="black"/>
<path d="M201.534 93.246C200.484 93.7702 199.238 94.4013 197.796 95.1393L194.11 97.0272C193.942 95.4221 193.414 94.6661 192.526 94.7591C191.262 94.8914 190.074 95.7409 188.96 97.3076C188.183 98.4592 187.915 99.5231 188.155 100.499C188.326 101.137 189.009 101.394 190.204 101.269C190.853 101.201 191.696 101.009 192.733 100.693C194.169 100.232 195.451 99.9422 196.578 99.8241C199.446 99.5237 201.223 100.339 201.909 102.269C202.11 102.87 202.246 103.512 202.318 104.195C202.547 106.38 201.974 108.822 200.599 111.521C198.829 115.055 196.149 118.15 192.561 120.804C190.671 122.211 188.753 123.016 186.806 123.22C185.031 123.406 183.237 123.093 181.426 122.281C182.065 120.143 183.114 116.978 184.574 112.785C185.746 113.422 186.946 113.676 188.176 113.547C188.722 113.49 189.276 113.346 189.839 113.114C190.869 112.73 191.835 112.232 192.738 111.62C194.025 110.725 194.628 109.885 194.546 109.1C194.456 108.246 193.711 107.892 192.311 108.039C191.355 108.139 189.976 108.491 188.175 109.094C186.405 109.659 185.041 109.992 184.085 110.092C182.821 110.224 181.823 110.087 181.09 109.68C179.665 108.932 178.974 107.606 179.016 105.703C179.063 101.866 181.045 97.2217 184.963 91.7708C188.968 86.1725 192.597 83.0822 195.851 82.4997C199.005 81.9622 200.844 84.1864 201.366 89.1723C201.491 90.3676 201.547 91.7255 201.534 93.246Z" fill="black"/>
<path d="M223.769 79.5757L224.459 89.1358C222.083 89.5228 219.83 89.9314 217.7 90.3616C216.437 100.057 215.827 108.908 215.872 116.913L207.451 120.073L209.309 92.328C208.401 92.5612 207.495 92.8114 206.591 93.0787L203.93 93.8754L202.312 84.3606L223.769 79.5757Z" fill="black"/>
<path d="M236.925 79.596L245.322 80.1665C239.301 93.882 234.689 106.207 231.484 117.142L223.541 117.456L227.775 105.464L221.315 85.3221L230.821 79.6656C230.883 81.2472 231.021 83.218 231.233 85.578C231.446 87.9379 231.812 90.2818 232.332 92.6095L236.925 79.596Z" fill="black"/>
<path d="M243.716 79.6615L252.355 77.0995C250.887 86.8166 249.905 95.7405 249.41 103.871L258.281 101.544L258.511 111.152C253.909 112.048 248.142 113.844 241.208 116.538L243.716 79.6615Z" fill="black"/>
<path d="M268.232 84.81C268.063 85.829 267.926 86.8273 267.821 87.8049L267.553 90.6814L275.566 88.0813L275.846 95.1986C272.024 96.2894 269.03 97.2072 266.864 97.9519C266.799 98.6492 266.751 99.3448 266.72 100.038L266.571 102.074L275.954 99.6928L276.286 109.29C271.411 110.215 265.302 112.046 257.959 114.783L260.208 77.4163L277.008 73.1708L277.335 82.7173C274.02 83.3752 270.986 84.0727 268.232 84.81Z" fill="black"/>
</g>
<defs>
<clipPath id="clip0">
<rect width="326.864" height="424.2" fill="white"/>
</clipPath>
</defs>
</svg>
