<svg width="243" height="48" viewBox="0 0 243 48" fill="none" xmlns="http://www.w3.org/2000/svg">
<path d="M75.0874 33.265C75.7421 33.265 76.2755 33.0137 76.6877 32.4831C77.0998 31.9804 77.2938 31.3102 77.2938 30.5003V11.7896C77.2938 11.5662 77.4635 11.3707 77.6575 11.3707H80.5913C80.7852 11.3707 80.955 11.5662 80.955 11.7896V30.612C80.955 31.5057 80.7852 32.3155 80.47 33.0695C80.1548 33.8236 79.7427 34.4379 79.2092 34.9685C78.6758 35.4991 78.0697 35.918 77.3423 36.1973C76.6149 36.5045 75.8633 36.6441 75.0632 36.6441C74.2631 36.6441 73.5114 36.5045 72.8083 36.1973C72.1052 35.8901 71.499 35.4991 70.9656 34.9685C70.4322 34.4379 70.02 33.7956 69.7048 33.0695C69.3896 32.3155 69.2441 31.5057 69.2441 30.612V29.8301C69.2441 29.6067 69.4139 29.4112 69.6078 29.4112H72.5416C72.7356 29.4112 72.9053 29.6067 72.9053 29.8301V30.612C72.9053 31.366 73.0993 32.0083 73.4872 32.511C73.9236 33.0137 74.4328 33.265 75.0874 33.265Z" fill="white"/>
<path d="M92.472 11.7058L97.2 35.918C97.2485 36.1973 97.0787 36.4486 96.8363 36.4486H93.9267C93.757 36.4486 93.6115 36.309 93.563 36.1135L92.9811 32.9858C92.9569 32.7903 92.7872 32.6506 92.6174 32.6506H87.5742C87.4045 32.6506 87.259 32.7903 87.2105 32.9858L86.6286 36.1135C86.6044 36.309 86.4347 36.4486 86.2649 36.4486H83.3554C83.1129 36.4486 82.9432 36.1973 82.9917 35.918L87.7682 11.7058C87.8167 11.5103 87.9622 11.3707 88.1319 11.3707H92.1083C92.278 11.3707 92.4477 11.5103 92.472 11.7058ZM88.3986 29.1878H91.8415C92.084 29.1878 92.2537 28.9364 92.2052 28.6851L90.4838 19.4414C90.411 18.9946 89.8534 18.9946 89.7564 19.4414L88.0349 28.6851C87.9864 28.9644 88.1561 29.1878 88.3986 29.1878Z" fill="white"/>
<path d="M106.704 30.4165L103.989 23.8817C103.819 23.4628 103.286 23.6025 103.286 24.0772V36.0018C103.286 36.2252 103.116 36.4207 102.922 36.4207H99.9882C99.7942 36.4207 99.6245 36.2252 99.6245 36.0018V11.7896C99.6245 11.5662 99.7942 11.3707 99.9882 11.3707H102.777C102.922 11.3707 103.043 11.4545 103.116 11.622L107.286 21.8152C107.408 22.1503 107.82 22.1503 107.965 21.8152L112.063 11.622C112.111 11.4824 112.257 11.3707 112.402 11.3707H115.166C115.36 11.3707 115.53 11.5662 115.53 11.7896V36.0018C115.53 36.2252 115.36 36.4207 115.166 36.4207H112.233C112.039 36.4207 111.869 36.2252 111.869 36.0018V24.0493C111.869 23.6025 111.335 23.4628 111.166 23.8538L108.45 30.3886C108.377 30.5282 108.256 30.6399 108.111 30.6399H107.02C106.898 30.6679 106.777 30.5562 106.704 30.4165Z" fill="white"/>
<path d="M119.286 11.3707H128.572C128.766 11.3707 128.936 11.5662 128.936 11.7896V14.3029C128.936 14.5264 128.766 14.7218 128.572 14.7218H122.947C122.753 14.7218 122.583 14.9173 122.583 15.1407V22.5133C122.583 22.7367 122.753 22.9322 122.947 22.9322H126.851C127.045 22.9322 127.214 23.1277 127.214 23.3511V25.8645C127.214 26.0879 127.045 26.2834 126.851 26.2834H122.947C122.753 26.2834 122.583 26.4789 122.583 26.7023V32.5389C122.583 32.7623 122.753 32.9578 122.947 32.9578H128.572C128.766 32.9578 128.936 33.1533 128.936 33.3767V35.9459C128.936 36.1693 128.766 36.3648 128.572 36.3648H119.286C119.092 36.3648 118.922 36.1693 118.922 35.9459V11.7896C118.898 11.5662 119.068 11.3707 119.286 11.3707Z" fill="white"/>
<path d="M134.927 30.0244V30.0523C134.951 30.3874 135 30.7505 135.072 31.1414C135.145 31.5324 135.291 31.8675 135.509 32.1747C135.727 32.4819 136.018 32.7332 136.382 32.9287C136.745 33.1242 137.23 33.2359 137.812 33.2359C138.443 33.2359 138.927 33.0963 139.267 32.817C139.606 32.5377 139.849 32.2306 140.019 31.8954C140.188 31.5324 140.285 31.1973 140.309 30.8901C140.334 30.555 140.334 30.3595 140.334 30.2478C140.334 29.0469 140.019 28.1254 139.364 27.4831C138.709 26.8128 137.885 26.1984 136.842 25.612C136.212 25.2489 135.557 24.858 134.903 24.4391C134.248 24.0202 133.642 23.4896 133.108 22.8752C132.575 22.2608 132.114 21.5627 131.775 20.7249C131.411 19.8871 131.241 18.9376 131.241 17.8205C131.241 17.0665 131.314 16.2846 131.46 15.5026C131.605 14.6927 131.896 13.9946 132.333 13.3244C132.769 12.682 133.375 12.1514 134.175 11.7325C134.975 11.3136 135.994 11.1182 137.279 11.1182C138.515 11.1182 139.534 11.3695 140.285 11.8443C141.037 12.319 141.643 12.9055 142.079 13.6036C142.516 14.3018 142.807 15.0279 142.977 15.7819C143.146 16.5638 143.243 17.2341 143.267 17.7926V18.0439C143.267 18.2673 143.098 18.4628 142.904 18.4628H140.019C139.825 18.4628 139.679 18.2953 139.655 18.0998L139.631 17.7926C139.606 17.4016 139.558 17.0386 139.461 16.6476C139.388 16.2566 139.243 15.9215 139.073 15.5864C138.903 15.2513 138.661 14.9999 138.37 14.8045C138.079 14.609 137.691 14.4973 137.23 14.4973C136.309 14.4973 135.703 14.8045 135.388 15.4188C135.072 16.0332 134.903 16.7314 134.903 17.5133C134.903 18.1836 135.024 18.77 135.242 19.2448C135.46 19.7195 135.751 20.1663 136.115 20.5294C136.479 20.8924 136.915 21.2275 137.4 21.5347C137.885 21.8419 138.418 22.1491 138.952 22.4563C139.534 22.7914 140.14 23.1265 140.722 23.5175C141.328 23.9085 141.861 24.3832 142.346 24.9418C142.831 25.5003 143.219 26.1705 143.534 26.9525C143.849 27.7344 143.995 28.6839 143.995 29.801C143.995 31.0856 143.825 32.1747 143.486 33.0404C143.146 33.9061 142.686 34.6043 142.128 35.1349C141.57 35.6655 140.916 36.0565 140.164 36.2799C139.437 36.5033 138.637 36.615 137.812 36.615C137.085 36.615 136.357 36.5033 135.606 36.2799C134.854 36.0565 134.175 35.6655 133.545 35.1628C132.914 34.6602 132.405 33.962 131.969 33.1242C131.557 32.2864 131.314 31.2531 131.241 30.0244V29.9964V29.7451C131.241 29.5217 131.411 29.3262 131.605 29.3262H134.563C134.757 29.3262 134.927 29.5217 134.927 29.7451V30.0244Z" fill="white"/>
<path d="M159.173 36.6714C158.252 36.6714 157.403 36.5038 156.627 36.1408C155.852 35.7777 155.173 35.303 154.615 34.6886C154.057 34.0742 153.621 33.3761 153.306 32.5383C152.991 31.7005 152.821 30.8068 152.821 29.8294V17.8769C152.821 16.8995 152.991 16.0058 153.306 15.168C153.621 14.3302 154.057 13.6041 154.615 12.9898C155.173 12.3754 155.852 11.9006 156.627 11.5655C157.403 11.2304 158.252 11.0628 159.173 11.0628C160.095 11.0628 160.943 11.2304 161.719 11.5655C162.495 11.9006 163.174 12.3754 163.732 12.9898C164.289 13.6041 164.726 14.3302 165.041 15.168C165.356 16.0058 165.526 16.8995 165.526 17.8769V29.8294C165.526 30.8348 165.356 31.7563 165.017 32.6221C164.895 32.9013 165.089 33.2364 165.356 33.2364H167.126C167.32 33.2364 167.49 33.4319 167.49 33.6553V36.2246C167.49 36.448 167.32 36.6435 167.126 36.6435H159.173V36.6714ZM159.173 33.2644C159.828 33.2644 160.434 33.013 160.992 32.5103C161.549 32.0077 161.84 31.1699 161.84 30.0249V17.7373C161.84 16.5364 161.549 15.6986 160.992 15.2239C160.434 14.7491 159.828 14.4978 159.173 14.4978C158.519 14.4978 157.913 14.7491 157.355 15.2239C156.797 15.6986 156.506 16.5364 156.506 17.7373V30.0249C156.506 31.1978 156.797 32.0077 157.355 32.5103C157.913 33.013 158.519 33.2644 159.173 33.2644Z" fill="white"/>
<path d="M182.134 36.6714C181.213 36.6714 180.364 36.5038 179.588 36.1408C178.813 35.7777 178.134 35.303 177.576 34.6886C177.018 34.0742 176.582 33.3761 176.267 32.5383C175.951 31.7005 175.782 30.8068 175.782 29.8294V17.8769C175.782 16.8995 175.951 16.0058 176.267 15.168C176.582 14.3302 177.018 13.6041 177.576 12.9898C178.134 12.3754 178.813 11.9006 179.588 11.5655C180.364 11.2304 181.213 11.0628 182.134 11.0628C183.056 11.0628 183.904 11.2304 184.68 11.5655C185.456 11.9006 186.135 12.3754 186.693 12.9898C187.25 13.6041 187.687 14.3302 188.002 15.168C188.317 16.0058 188.487 16.8995 188.487 17.8769V29.8294C188.487 30.8348 188.317 31.7563 187.978 32.6221C187.856 32.9013 188.05 33.2364 188.317 33.2364H190.087C190.281 33.2364 190.451 33.4319 190.451 33.6553V36.2246C190.451 36.448 190.281 36.6435 190.087 36.6435H182.134V36.6714ZM182.134 33.2644C182.789 33.2644 183.395 33.013 183.953 32.5103C184.51 32.0077 184.801 31.1699 184.801 30.0249V17.7373C184.801 16.5364 184.51 15.6986 183.953 15.2239C183.395 14.7491 182.789 14.4978 182.134 14.4978C181.48 14.4978 180.873 14.7491 180.316 15.2239C179.758 15.6986 179.467 16.5364 179.467 17.7373V30.0249C179.467 31.1978 179.758 32.0077 180.316 32.5103C180.849 33.013 181.48 33.2644 182.134 33.2644Z" fill="white"/>
<path d="M198.379 36.6721C197.458 36.6721 196.609 36.5045 195.834 36.1694C195.058 35.8343 194.379 35.3595 193.821 34.7451C193.263 34.1307 192.827 33.4326 192.512 32.5948C192.197 31.757 192.027 30.8633 192.027 29.8859V11.7896C192.027 11.5662 192.197 11.3707 192.391 11.3707H195.324C195.518 11.3707 195.688 11.5662 195.688 11.7896V30.0256C195.688 31.1985 195.979 32.0083 196.537 32.511C197.094 33.0137 197.701 33.265 198.355 33.265C199.01 33.265 199.616 33.0137 200.174 32.511C200.731 32.0083 201.022 31.1705 201.022 30.0256V11.7896C201.022 11.5662 201.192 11.3707 201.386 11.3707H204.32C204.514 11.3707 204.683 11.5662 204.683 11.7896V29.8859C204.683 30.8633 204.514 31.757 204.199 32.5948C203.883 33.4326 203.447 34.1307 202.889 34.7451C202.332 35.3595 201.653 35.8343 200.877 36.1694C200.149 36.4766 199.301 36.6721 198.379 36.6721Z" fill="white"/>
<path d="M208.466 11.3707H211.399C211.593 11.3707 211.763 11.5662 211.763 11.7896V36.0018C211.763 36.2252 211.593 36.4207 211.399 36.4207H208.466C208.272 36.4207 208.102 36.2252 208.102 36.0018V11.7896C208.102 11.5662 208.272 11.3707 208.466 11.3707Z" fill="white"/>
<path d="M221.268 36.6714C220.346 36.6714 219.498 36.5038 218.722 36.1687C217.946 35.8336 217.291 35.3588 216.734 34.7445C216.176 34.1301 215.74 33.4319 215.424 32.5941C215.109 31.7563 214.939 30.8627 214.939 29.8853V17.8769C214.939 16.8995 215.109 16.0058 215.424 15.168C215.74 14.3302 216.176 13.6041 216.734 12.9898C217.291 12.3754 217.946 11.9006 218.722 11.5655C219.498 11.2304 220.346 11.0628 221.268 11.0628C222.141 11.0628 222.941 11.2304 223.692 11.5655C224.444 11.9006 225.099 12.3754 225.656 12.9339C226.214 13.5204 226.675 14.1906 227.014 15.0005C227.353 15.7824 227.547 16.6481 227.596 17.5976V17.6256V17.8769C227.596 18.1003 227.426 18.2958 227.232 18.2958H224.298C224.104 18.2958 223.935 18.1003 223.935 17.8769V17.6535C223.911 16.4806 223.62 15.6707 223.062 15.1959C222.504 14.7212 221.898 14.4978 221.268 14.4978C220.637 14.4978 220.031 14.7491 219.473 15.2239C218.916 15.6986 218.625 16.5364 218.625 17.7373V30.0249C218.625 31.1978 218.916 32.0077 219.473 32.5103C220.031 33.013 220.637 33.2644 221.268 33.2644C221.898 33.2644 222.504 33.0409 223.062 32.5662C223.62 32.0914 223.911 31.2816 223.935 30.1087V29.8573C223.935 29.6339 224.104 29.4384 224.298 29.4384H227.232C227.426 29.4384 227.596 29.6339 227.596 29.8573V30.1087V30.1366C227.547 31.0582 227.353 31.896 227.014 32.7058C226.675 33.5157 226.214 34.2139 225.656 34.8003C225.099 35.3868 224.444 35.8336 223.692 36.1687C222.941 36.4759 222.141 36.6714 221.268 36.6714Z" fill="white"/>
<path d="M239.016 36.1414L236.228 27.4283C236.107 27.0653 235.67 27.0653 235.549 27.4004L233.633 32.3434C233.609 32.3992 233.609 32.4551 233.609 32.5109V36.0017C233.609 36.2251 233.439 36.4206 233.245 36.4206H230.312C230.118 36.4206 229.948 36.2251 229.948 36.0017V11.7895C229.948 11.5661 230.118 11.3706 230.312 11.3706H233.245C233.439 11.3706 233.609 11.5661 233.609 11.7895V21.843C233.609 22.2898 234.143 22.4295 234.312 22.0385L238.58 11.594C238.652 11.4544 238.774 11.3427 238.919 11.3427H242.144C242.411 11.3427 242.605 11.6778 242.483 11.9571L238.41 21.8151C238.361 21.9268 238.361 22.0385 238.41 22.1502L242.944 35.8342C243.041 36.1134 242.847 36.4206 242.605 36.4206H239.38C239.21 36.4206 239.065 36.3089 239.016 36.1414Z" fill="white"/>
<path d="M11.9499 35.7498C13.4899 35.7498 14.7382 34.3119 14.7382 32.5383C14.7382 30.7646 13.4899 29.3267 11.9499 29.3267C10.41 29.3267 9.16162 30.7646 9.16162 32.5383C9.16162 34.3119 10.41 35.7498 11.9499 35.7498Z" fill="white"/>
<path d="M51.812 38.4866H49.2176C48.8054 38.4866 48.5145 37.9839 48.6842 37.5371C48.8297 37.1182 48.9752 36.6993 49.0964 36.2804C49.3146 35.5264 49.4601 34.7444 49.5571 33.9346L52.3696 13.7437C52.6363 11.7889 52.5636 9.97367 52.1756 8.27016C51.7877 6.59457 51.1088 5.1424 50.139 3.94156C49.1691 2.74072 47.9811 1.79122 46.5748 1.06514C45.1443 0.422828 43.5198 0.0597839 41.677 0.0597839C41.3376 0.0597839 40.9982 0.0877104 40.6587 0.115637H29.8207L29.8449 0.0877104H9.50235H9.30838C7.80512 0.143563 6.56856 1.56781 6.56856 3.32718C6.56856 5.11447 7.82936 6.56664 9.38112 6.56664H21.3587H25.8928C26.6929 6.56664 27.396 7.32066 27.3475 8.27016C27.2991 9.13588 26.6929 9.80611 25.9413 9.80611H21.383H2.88314C1.50111 9.80611 0.288799 10.9232 0.0463368 12.4591C-0.268864 14.4698 1.06468 16.285 2.8104 16.285H21.383H27.0081H28.3901C29.1903 16.285 29.8934 17.0391 29.8449 17.9886C29.7964 18.8543 29.1903 19.5245 28.4386 19.5245H26.5717H21.4072H17.7218H7.53841C6.15638 19.5245 4.94407 20.6416 4.70161 22.1775C4.3864 24.2162 5.71995 26.0314 7.48992 26.0314H21.383H21.4315C22.3286 26.0314 23.0075 26.925 22.862 27.9304C22.7408 28.7123 22.1589 29.2708 21.4557 29.2988H21.383H19.0554H19.0311C17.6006 29.2988 16.3883 30.5555 16.2428 32.231C16.0731 34.1859 17.4066 35.8056 19.1038 35.8056H23.6621C24.0501 35.8056 24.3895 36.1687 24.3895 36.6155C24.4138 37.5929 24.535 38.5424 24.729 39.464C25.1169 41.1396 25.7958 42.5918 26.7171 43.7926C27.6627 44.9934 28.8266 45.9429 30.2571 46.669C31.6634 47.3672 33.2879 47.7302 35.1306 47.7302H51.715C53.7032 47.7302 55.4489 46.1105 55.7398 43.8484C56.1278 41 54.2608 38.4866 51.812 38.4866ZM42.5257 13.3248L39.5919 34.4093C39.4222 35.666 39.01 36.5317 38.3796 37.0065C37.7492 37.4812 37.1188 37.7326 36.5126 37.7326C35.9065 37.7326 35.3488 37.4812 34.8396 37.0065C34.3305 36.5317 34.185 35.666 34.3547 34.4093L37.2885 13.2969C37.4582 12.0402 37.8704 11.1745 38.5008 10.6998C39.1312 10.225 39.7616 9.97367 40.3678 9.97367C40.9739 9.97367 41.5316 10.225 42.0407 10.6998C42.5499 11.2024 42.6954 12.0682 42.5257 13.3248Z" fill="white"/>
</svg>
