<svg width="212" height="151" viewBox="0 0 212 151" fill="none" xmlns="http://www.w3.org/2000/svg">
<path d="M29.9873 61.4189C34.8525 38.4385 43.9619 24.0498 57.3154 18.2529C61.042 16.5967 64.8203 15.7686 68.6504 15.7686C76.4141 15.7686 83.3496 18.5117 89.457 23.998C97.3242 30.9336 101.258 39.2148 101.258 48.8418C101.258 57.9512 97.2725 66.9053 89.3018 75.7041C83.5049 82.2256 74.8096 88.0742 63.2158 93.25C54.417 97.1836 48.8789 101.065 46.6016 104.896L86.9727 102.256L83.5566 131.292L15.5469 134.863C15.3398 132.586 15.2363 130.36 15.2363 128.187C15.2363 118.042 17.3066 109.295 21.4473 101.945C26.416 92.9395 37.4922 83.8818 54.6758 74.7725C64.0957 69.8037 69.6855 64.8867 71.4453 60.0215C72.2734 57.5371 72.6875 55.3115 72.6875 53.3447C72.6875 51.2744 72.0664 49.4629 70.8242 47.9102C69.6855 46.2539 68.0811 45.4258 66.0107 45.4258C61.5596 45.4258 59.1787 49.0488 58.8682 56.2949L29.9873 61.4189Z" fill="#ED2843"/>
<path fill-rule="evenodd" clipRule="evenodd" d="M10.7053 80.0742L15.3126 58.3121C20.5522 33.5632 31.322 13.2155 51.2832 4.51922C56.7838 2.08368 62.6095 0.768555 68.6504 0.768555C80.3172 0.768555 90.7512 5.01789 99.4284 12.792C110.168 22.2823 116.258 34.517 116.258 48.8418C116.258 62.667 110.13 75.0363 100.465 85.7236C100.269 85.9437 100.071 86.1626 99.8706 86.3805L103.975 86.1121L96.9759 145.608L1.91561 150.6L0.608477 136.221C0.362507 133.516 0.236328 130.836 0.236328 128.187C0.236328 116.007 2.72887 104.637 8.34665 94.6394C11.6691 88.6391 16.5335 83.112 22.5677 77.9696L10.7053 80.0742ZM58.8682 56.2949C58.8706 56.2379 58.8732 56.1812 58.8759 56.1246C58.8805 56.028 58.8855 55.932 58.8908 55.8367C58.8974 55.7195 58.9046 55.6034 58.9123 55.4883C58.963 54.731 59.0382 54.0165 59.1378 53.3447C59.9204 48.0654 62.2114 45.4258 66.0107 45.4258C68.0811 45.4258 69.6855 46.2539 70.8242 47.9102C72.0664 49.4629 72.6875 51.2744 72.6875 53.3447C72.6875 54.4398 72.5591 55.6151 72.3024 56.8707C72.2283 57.2333 72.1434 57.6027 72.0478 57.9787C71.88 58.639 71.6792 59.3199 71.4453 60.0215C70.1583 63.5798 66.8225 67.1658 61.438 70.7794C61.2387 70.9132 61.0366 71.047 60.8317 71.1808C59.0032 72.375 56.9512 73.5722 54.6758 74.7725C37.4922 83.8818 26.416 92.9395 21.4473 101.945C18.4898 107.195 16.5886 113.157 15.7435 119.832C15.4054 122.503 15.2363 125.288 15.2363 128.187C15.2363 128.475 15.2381 128.763 15.2418 129.053C15.2656 130.951 15.3673 132.888 15.5469 134.863L83.5566 131.292L86.9727 102.256L46.6016 104.896C48.8789 101.065 54.417 97.1836 63.2158 93.25C66.9001 91.6052 70.2916 89.8925 73.3905 88.1119C80.0432 84.2891 85.347 80.1532 89.3018 75.7041C97.2725 66.9053 101.258 57.9512 101.258 48.8418C101.258 39.2148 97.3242 30.9336 89.457 23.998C83.3496 18.5117 76.4141 15.7686 68.6504 15.7686C64.8203 15.7686 61.042 16.5967 57.3154 18.2529C47.4024 22.5563 39.8282 31.5945 34.593 45.3676C32.776 50.1477 31.2408 55.4982 29.9873 61.4189L58.8682 56.2949Z" fill="black"/>
<path d="M117.403 16.06L135.085 12.4827C134.949 14.595 134.88 17.5931 134.88 21.477C134.88 30.7438 135.187 38.8863 135.8 45.9046C136.141 49.9247 136.652 53.1613 137.333 55.6143L144.284 15.7534L161.863 12.4827C154.777 39.8062 150.143 63.4843 147.963 83.5169L131.814 88.0141C131.746 87.8778 131.303 86.6854 130.486 84.4368L125.171 69.3101C124.285 66.8571 123.774 65.2899 123.638 64.6086C122.207 72.6489 121.082 80.4507 120.265 88.0141L103.912 92.92L117.403 16.06Z" fill="#ED2843"/>
<path d="M162.885 15.6512C170.721 13.0619 177.365 11.7673 182.816 11.7673C188.948 11.7673 193.616 13.3685 196.818 16.571C201.247 21.1363 203.462 26.6896 203.462 33.2308C203.462 35.6157 203.155 38.1368 202.542 40.7942C199.884 52.7865 193.616 63.2798 183.736 72.2741C173.856 81.2002 162.851 86.4469 150.723 88.0141C150.859 86.515 151.574 82.052 152.869 74.6249L161.046 27.6094C162.204 20.5912 162.817 16.6051 162.885 15.6512ZM177.501 32.5154C174.367 45.8705 171.982 58.5102 170.346 70.4344C174.435 66.5505 178.08 62.0534 181.283 56.943C185.235 50.6743 187.211 45.2913 187.211 40.7942C187.211 35.0024 183.974 32.2428 177.501 32.5154Z" fill="#ED2843"/>
<path fill-rule="evenodd" clipRule="evenodd" d="M110.467 9.30111L143.741 2.56937L143.405 7.77953L172.764 2.31732L172.092 4.90995C175.885 4.16424 179.468 3.76725 182.816 3.76725C190.298 3.76725 197.303 5.7419 202.475 10.9142L202.518 10.957L202.56 11.0005C208.483 17.1051 211.462 24.6756 211.462 33.2308C211.462 36.2894 211.07 39.406 210.345 42.5594C207.294 56.2916 200.1 68.1951 189.121 78.1899L189.11 78.2001L189.099 78.2103C178.122 88.1268 165.636 94.1535 151.748 95.9481L141.852 97.2267L142.198 93.4269L127.608 97.4899L126.162 94.5973L93.7903 104.309L110.467 9.30111ZM121.02 81.6311C121.502 77.8801 122.057 74.0723 122.685 70.2079C122.686 70.1993 122.687 70.1908 122.689 70.1822C122.988 68.3372 123.305 66.4793 123.638 64.6085C123.774 65.2899 124.285 66.8571 125.171 69.3101L130.486 84.4368C131.303 86.6853 131.746 87.8778 131.814 88.0141L147.963 83.5169C148.3 80.4241 148.695 77.2444 149.148 73.9778C149.148 73.9773 149.149 73.9768 149.149 73.9763C151.094 59.9638 154.116 44.3523 158.213 27.142C158.215 27.1339 158.217 27.1259 158.219 27.1178C158.698 25.1079 159.191 23.0762 159.699 21.0226C160.148 19.2062 160.609 17.3728 161.081 15.5223C161.335 14.5281 161.592 13.5289 161.852 12.5249C161.856 12.5108 161.86 12.4968 161.863 12.4827L144.284 15.7533L137.334 55.6143C136.652 53.1613 136.141 49.9247 135.8 45.9046C135.223 39.2965 134.917 31.6917 134.884 23.0902C134.882 22.5563 134.881 22.0186 134.881 21.477C134.881 21.2091 134.881 20.9454 134.882 20.6859C134.89 17.1837 134.958 14.4493 135.085 12.4827L117.403 16.06L103.912 92.92L120.265 88.0141C120.493 85.905 120.745 83.7773 121.02 81.6311ZM162.715 17.0595C162.597 17.9011 162.421 19.0678 162.187 20.5597C161.896 22.4097 161.516 24.7596 161.046 27.6094L152.869 74.6249C152.539 76.5195 152.246 78.2212 151.991 79.73C151.721 81.3307 151.493 82.7144 151.307 83.8809C150.982 85.9254 150.787 87.3031 150.723 88.0141C152.374 87.8007 154.004 87.5192 155.613 87.1696C156.76 86.9203 157.897 86.6364 159.023 86.3178C159.396 86.2123 159.768 86.103 160.138 85.9898C163.405 84.9928 166.582 83.7004 169.669 82.1127C174.587 79.5829 179.276 76.3034 183.736 72.2741C193.616 63.2798 199.885 52.7865 202.542 40.7942C203.155 38.1368 203.462 35.6157 203.462 33.2308C203.462 26.6895 201.247 21.1363 196.818 16.571C193.616 13.3685 188.948 11.7673 182.816 11.7673C179.056 11.7673 174.729 12.3832 169.834 13.615C169.246 13.7631 168.65 13.9201 168.045 14.0859C166.387 14.5407 164.667 15.0625 162.885 15.6511C162.867 15.9053 162.81 16.3748 162.715 17.0595ZM180.323 58.4359C180.647 57.9442 180.967 57.4466 181.283 56.943C185.235 50.6742 187.211 45.2913 187.211 40.7942C187.211 38.1529 186.538 36.1422 185.191 34.7621C184.981 34.546 184.753 34.3454 184.509 34.1602C182.896 32.9349 180.56 32.3866 177.501 32.5154C175.655 40.3792 174.07 47.995 172.744 55.3627C171.818 60.5075 171.019 65.5314 170.347 70.4344C174.032 66.9332 177.357 62.9337 180.323 58.4359Z" fill="black"/>
</svg>
