<svg width="390" height="367" viewBox="0 0 390 367" fill="none" xmlns="http://www.w3.org/2000/svg">
<path d="M203.156 62.1869L253.125 4.108V73.7319L299.128 57.6893L293.639 104.471L368.327 89.1015L312.196 148.278H360.465L317.224 182.949L390 211.705L314.462 227.074L329.796 257.53L293.639 254.733L311.275 303.887L266.087 281.718L268.459 334.804L225.998 300.204L193.063 363.524L182.226 303.073L127.406 361.789L139.978 290.005L98.012 304.773L107.892 265.534L46.1305 275.379L81.4383 221.054L38.3749 198.531L75.3116 182.949L20.2429 147.074L85.4046 134.502L27.1486 50.7482L115.613 92.7846L123.687 49.0837L154.781 69.2697L172.31 11.8637L203.156 62.1869Z" fill="#FFF300"/>
<path d="M290.345 315.468L318.641 336.326L315.949 348.828L290.345 315.468Z" fill="#231F20"/>
<path d="M288.574 326.021L310.354 366.818L298.88 364.587L288.574 326.021Z" fill="#231F20"/>
<path d="M274.94 37.7513L287.866 0L297.782 2.44356L274.94 37.7513Z" fill="#231F20"/>
<path d="M285.458 35.8743L316.622 1.69986L318.358 13.2448L285.458 35.8743Z" fill="#231F20"/>
<path d="M43.6515 232.351L7.9542 250.129L2.60669 241.417L43.6515 232.351Z" fill="#231F20"/>
<path d="M34.8334 226.295L-11.3464 228.739L-4.44071 219.283L34.8334 226.295Z" fill="#231F20"/>
<path d="M246.644 21.5671V73.7319V82.8687L255.25 79.8585L291.478 67.2157L287.193 103.727L286.131 112.652L294.914 110.846L349.416 99.6549L307.486 143.852L297.109 154.759H312.196H342.014L313.152 177.884L304.475 184.861L314.852 188.969L367.335 209.721L313.187 220.735L304.865 222.435L308.69 230.014L318.854 250.2L294.135 248.287L284.148 247.508L287.512 256.928L299.765 291.032L268.955 275.91L259.146 271.094L259.641 282.001L261.377 320.673L230.106 295.211L223.944 290.182L220.261 297.229L196.109 343.657L188.636 301.939L186.37 289.19L177.552 298.646L137.534 341.426L146.352 291.103L148.264 280.195L137.817 283.878L107.22 294.644L114.161 267.092L116.569 257.566L106.865 259.124L59.517 266.703L86.892 224.595L90.7875 218.61L84.4484 215.317L53.5675 199.168L77.826 188.934L89.0877 184.188L78.853 177.53L37.2062 150.439L86.6087 140.912L96.383 139.035L90.6813 130.855L46.3784 67.1094L112.815 98.6633L120.429 102.276L121.952 93.9886L128.256 59.8142L151.204 74.7234L158.428 79.3981L160.943 71.1821L174.258 27.552L197.596 65.5866L202.235 73.1652L208.043 66.4366L246.644 21.5671ZM253.125 4.108L203.156 62.1869L172.31 11.8991L154.781 69.3051L123.687 49.1192L115.613 92.7846L27.1486 50.7482L85.4046 134.502L20.2429 147.074L75.3116 182.913L38.3749 198.495L81.4383 221.019L46.1305 275.379L107.892 265.499L97.9766 304.737L139.942 289.97L127.37 361.754L182.191 303.037L193.028 363.489L225.963 300.169L268.424 334.768L266.051 281.647L311.24 303.816L293.603 254.662L329.761 257.46L314.427 227.004L389.965 211.634L317.189 182.842L360.43 148.207H312.16L368.291 89.0307L293.639 104.471L299.128 57.6893L253.125 73.7673V4.108Z" fill="#231F20"/>
</svg>
