<svg width="211" height="179" viewBox="0 0 211 179" fill="none" xmlns="http://www.w3.org/2000/svg">
<path d="M97.4859 70.6391C90.2016 70.8703 80.6625 75.9578 68.8688 85.9016C90.6063 89.2547 101.417 97.7531 101.302 111.397C101.302 123.191 94.1906 134.984 79.9688 146.778C65.8625 158.572 52.3922 163.948 39.5578 162.908C24.7578 161.636 16.8375 150.767 15.7969 130.302L47.8828 125.792C47.4203 127.18 47.1891 128.394 47.1891 129.434C47.1891 131.4 48.1719 132.383 50.1375 132.383C50.9469 132.383 51.8719 132.209 52.9125 131.863C57.8844 130.475 61.7 128.047 64.3594 124.578C65.4 123.306 65.9203 122.034 65.9203 120.762C65.9203 115.559 60.3125 112.958 49.0969 112.958C42.9688 112.958 34.8172 113.652 24.6422 115.039L30.5391 85.9016C41.0609 78.9641 51.1203 72.2 60.7172 65.6094C50.8891 66.4188 41.1766 67.4594 31.5797 68.7313L33.6609 35.7781L103.556 31.7891C102.053 40.3453 100.03 53.2953 97.4859 70.6391Z" fill="#ED2843"/>
<path fill-rule="evenodd" clipRule="evenodd" d="M86.908 90.9435C82.0996 88.6956 76.0866 87.0149 68.8688 85.9016C75.0019 80.7305 80.5253 76.8727 85.439 74.3282C89.9741 71.9798 93.9897 70.7501 97.486 70.6391C98.1939 65.8123 98.8616 61.3258 99.4889 57.1796C100.028 53.6148 100.538 50.3015 101.018 47.2397C101.033 47.1449 101.047 47.0502 101.062 46.9558C102.011 40.9089 102.842 35.8533 103.556 31.7891L33.661 35.7781L31.5798 68.7313C36.5961 68.0664 41.6441 67.4648 46.7236 66.9263C51.3618 66.4347 56.0264 65.9957 60.7173 65.6094C52.22 71.4449 43.3601 77.4163 34.1377 83.5237C32.9442 84.3141 31.7447 85.1067 30.5391 85.9016L24.6423 115.039C30.5387 114.235 35.7557 113.664 40.2931 113.326C42.3659 113.171 44.297 113.066 46.0862 113.008C47.1389 112.975 48.1425 112.958 49.0969 112.958C59.3526 112.958 64.9193 115.133 65.7971 119.484C65.8793 119.891 65.9204 120.317 65.9204 120.762C65.9204 122.034 65.4001 123.306 64.3594 124.578C64.2138 124.768 64.0647 124.955 63.9121 125.139C63.3064 125.868 62.646 126.548 61.9309 127.179C60.9826 128.016 59.9381 128.767 58.7974 129.43C58.7951 129.432 58.7928 129.433 58.7905 129.434C57.0539 130.444 55.0946 131.254 52.9126 131.862C51.8719 132.209 50.9469 132.383 50.1376 132.383C49.6158 132.383 49.1632 132.314 48.7799 132.175C47.7194 131.792 47.1891 130.878 47.1891 129.434C47.1891 128.982 47.2328 128.497 47.3201 127.98C47.4338 127.306 47.6213 126.577 47.8829 125.792L15.7969 130.302C15.8153 130.663 15.8358 131.021 15.8584 131.376C16.1221 135.511 16.6761 139.241 17.5205 142.565C17.7426 143.44 17.9847 144.286 18.247 145.105C21.7555 156.054 28.8592 161.988 39.5579 162.908C52.3923 163.948 65.8626 158.572 79.9688 146.778C94.1907 134.984 101.302 123.191 101.302 111.397C101.379 102.283 96.581 95.4656 86.908 90.9435ZM116.302 111.459C116.277 129.71 105.247 145.296 89.5671 158.305C73.7461 171.526 56.5083 179.331 38.3456 177.859L38.3096 177.856L38.2735 177.853C27.0545 176.889 17.1987 171.973 10.395 162.636C4.03841 153.914 1.41248 142.788 0.816292 131.063L0.119385 117.357L9.12509 116.092L15.5699 84.2467L19.5291 21.5603L121.606 15.7345L118.33 34.3845C116.865 42.7234 114.867 55.5016 112.327 72.8158L110.506 85.2333L105.331 85.3976C112.546 92.2424 116.372 101.22 116.302 111.459Z" fill="black"/>
<path d="M120.768 13.7393C131.466 10.5368 140.221 8.93555 147.035 8.93555C156.234 8.93555 160.799 12.138 160.731 18.5431C160.663 27.7417 154.871 36.9745 143.356 46.2413C144.31 48.8305 148.262 56.9731 155.212 70.6689C151.669 73.9395 146.32 78.7433 139.165 85.0801L128.229 56.8709H128.127C126.492 65.797 125.265 74.0417 124.447 81.6051L108.299 86.1022C108.435 84.6032 109.184 80.072 110.547 72.5086L120.768 13.7393ZM133.646 29.8881C133.033 32.2048 132.488 34.5215 132.011 36.8382L130.58 43.7883C132.965 42.5618 135.315 40.9606 137.632 38.9846C140.29 36.6678 142.061 34.4534 142.947 32.3411C143.288 31.7278 143.458 31.1486 143.458 30.6035C143.458 29.1045 142.47 28.355 140.494 28.355C138.927 28.355 136.644 28.866 133.646 29.8881Z" fill="#ED2843"/>
<path d="M161.958 13.7393C169.793 11.15 176.437 9.85541 181.888 9.85541C188.02 9.85541 192.688 11.4567 195.89 14.6592C200.319 19.2244 202.534 24.7777 202.534 31.319C202.534 33.7038 202.227 36.2249 201.614 38.8823C198.957 50.8747 192.688 61.368 182.808 70.3623C172.928 79.2884 161.923 84.535 149.795 86.1022C149.931 84.6032 150.647 80.1401 151.941 72.713L160.118 25.6976C161.276 18.6793 161.889 14.6932 161.958 13.7393ZM176.573 30.6035C173.439 43.9587 171.054 56.5983 169.419 68.5225C173.507 64.6386 177.152 60.1415 180.355 55.0311C184.307 48.7624 186.283 43.3795 186.283 38.8823C186.283 33.0906 183.046 30.331 176.573 30.6035Z" fill="#ED2843"/>
<path fill-rule="evenodd" clipRule="evenodd" d="M113.734 7.49423L118.473 6.07535C129.505 2.77282 139.108 0.935547 147.035 0.935547C152.31 0.935547 157.703 1.80762 161.952 4.78816C162.136 4.9168 162.315 5.04797 162.49 5.18161C169.577 3.0479 176.086 1.85541 181.888 1.85541C189.37 1.85541 196.375 3.83006 201.547 9.00231L201.59 9.04516L201.632 9.08866C207.554 15.1932 210.534 22.7637 210.534 31.319C210.534 34.3772 210.142 37.4936 209.417 40.6466C206.367 54.3792 199.172 66.2831 188.193 76.2781L188.182 76.2883L188.171 76.2984C177.194 86.2149 164.708 92.2417 150.82 94.0362L140.924 95.3149L141.034 94.112L135.862 98.6924L131.677 87.8962L99.2822 96.9175L100.331 85.3779C100.507 83.4403 101.342 78.4804 102.669 71.1139L113.734 7.49423ZM110.547 72.5086C110.221 74.3173 109.93 75.9527 109.675 77.4146C108.861 82.0658 108.402 84.9617 108.298 86.1022L124.447 81.6051C124.772 78.5987 125.162 75.4847 125.616 72.2631C126.303 67.3926 127.137 62.2761 128.119 56.9135C128.121 56.8993 128.124 56.8851 128.127 56.8709H128.229L139.165 85.0801C140.224 84.1425 141.243 83.2384 142.222 82.3679C143.386 81.3337 144.494 80.347 145.546 79.4076C147.889 77.3152 149.956 75.4579 151.746 73.8356C151.494 75.2861 151.267 76.6136 151.063 77.8182C150.319 82.2242 149.896 84.9856 149.795 86.1022C149.898 86.0888 150.002 86.0752 150.105 86.0612C152.825 85.6951 155.488 85.1433 158.095 84.406C158.468 84.3004 158.84 84.1911 159.21 84.078C162.477 83.0809 165.654 81.7885 168.741 80.2008C173.659 77.671 178.348 74.3915 182.808 70.3623C192.688 61.368 198.956 50.8747 201.614 38.8823C202.227 36.2249 202.534 33.7038 202.534 31.319C202.534 24.7777 200.319 19.2244 195.89 14.6592C192.688 11.4567 188.02 9.85542 181.888 9.85542C177.801 9.85542 173.045 10.583 167.618 12.0382C165.806 12.5241 163.919 13.0912 161.957 13.7393C161.917 14.2988 161.69 15.9014 161.275 18.5471C161.275 18.5477 161.275 18.5483 161.275 18.5488C160.982 20.4137 160.596 22.7966 160.118 25.6976L153.042 66.3811C150.578 61.4948 148.573 57.4593 147.028 54.2747C145.056 50.2121 143.832 47.5343 143.356 46.2413C145.565 44.4633 147.564 42.6866 149.352 40.9111C154.5 35.7986 157.902 30.6966 159.556 25.6049C159.557 25.6034 159.557 25.6018 159.558 25.6002C160.322 23.2456 160.713 20.8932 160.731 18.5431C160.752 16.5833 160.339 14.9233 159.492 13.5632C158.424 11.847 156.665 10.6081 154.215 9.84665C152.261 9.23925 149.868 8.93555 147.035 8.93555C140.221 8.93555 131.465 10.5368 120.768 13.7393L110.547 72.5086ZM142.947 32.3411C142.43 33.5727 141.613 34.8391 140.494 36.1403C140.436 36.2076 140.377 36.275 140.318 36.3426C140.31 36.3513 140.302 36.3599 140.295 36.3686C140.293 36.3706 140.291 36.3725 140.289 36.3745C139.764 36.9689 139.175 37.5705 138.524 38.1793C138.239 38.4463 137.941 38.7147 137.632 38.9846C135.315 40.9606 132.964 42.5618 130.58 43.7883L132.011 36.8382C132.246 35.6937 132.498 34.5491 132.767 33.4046C132.775 33.3723 132.783 33.3401 132.79 33.3079C132.863 32.9988 132.937 32.6898 133.012 32.3807C133.215 31.5498 133.426 30.719 133.646 29.8881C134.319 29.6587 134.956 29.455 135.556 29.2771C135.573 29.2723 135.589 29.2674 135.606 29.2626C135.616 29.2595 135.626 29.2565 135.637 29.2534C136.044 29.1338 136.434 29.0262 136.808 28.9304C138.305 28.5468 139.534 28.355 140.494 28.355C142.47 28.355 143.458 29.1045 143.458 30.6035C143.458 31.1486 143.287 31.7278 142.947 32.3411ZM179.395 56.524C179.719 56.0324 180.039 55.5347 180.355 55.0311C184.307 48.7624 186.283 43.3795 186.283 38.8823C186.283 36.241 185.61 34.2303 184.263 32.8503C184.052 32.6342 183.825 32.4335 183.581 32.2484C181.968 31.023 179.632 30.4747 176.573 30.6035C174.727 38.4674 173.142 46.0832 171.816 53.4509C170.89 58.5957 170.091 63.6196 169.419 68.5225C173.104 65.0214 176.429 61.0219 179.395 56.524Z" fill="black"/>
</svg>
